<svg width="11" height="7" viewBox="0 0 11 7" fill="none" xmlns="http://www.w3.org/2000/svg">
<path d="M9.74369 0.669954L5.61035 4.80329L1.47702 0.669954C1.36591 0.558843 1.24368 0.503287 1.11035 0.503287C0.977018 0.503287 0.860352 0.553288 0.760352 0.653287C0.660352 0.753287 0.610352 0.87551 0.610352 1.01995C0.610352 1.1644 0.654796 1.28107 0.743685 1.36995L5.24369 5.86995C5.3548 5.98107 5.47702 6.03662 5.61035 6.03662C5.74369 6.03662 5.86591 5.98107 5.97702 5.86995L10.477 1.36995C10.5659 1.28107 10.6104 1.1644 10.6104 1.01995C10.6104 0.87551 10.5604 0.753287 10.4604 0.653287C10.3604 0.553288 10.2437 0.503287 10.1104 0.503287C9.97702 0.503287 9.8548 0.558843 9.74369 0.669954Z" fill="#0D0D0D"/>
</svg>
